<svg width="275" height="118" viewBox="0 0 275 118" fill="none" xmlns="http://www.w3.org/2000/svg">
<path d="M25.072 22.08C25.84 21.888 27.952 21.84 31.408 21.936C34.96 22.032 37.312 22.224 38.464 22.512C39.52 22.8 40.576 22.8 41.632 22.512C43.648 22.128 45.376 22.512 46.816 23.664C47.68 24.432 48.4 24.72 48.976 24.528C50.512 24.144 52.24 25.536 54.16 28.704C56.08 31.872 56.8 34.512 56.32 36.624C56.032 37.584 56.032 38.496 56.32 39.36C56.608 40.512 56.656 43.824 56.464 49.296C56.368 51.984 55.888 54 55.024 55.344C54.16 56.688 52.672 57.648 50.56 58.224C48.16 58.992 46.336 59.616 45.088 60.096C43.264 60.864 39.232 61.2 32.992 61.104C30.592 61.008 27.664 61.248 24.208 61.824C23.152 62.016 21.856 62.208 20.32 62.4C18.88 62.592 18.112 62.736 18.016 62.832C16.48 63.024 15.472 64.272 14.992 66.576C14.512 68.784 14.608 71.184 15.28 73.776C15.952 76.272 17.104 77.952 18.736 78.816C19.6 79.2 21.28 79.392 23.776 79.392C26.176 79.392 27.856 79.536 28.816 79.824C29.68 80.112 32.368 80.112 36.88 79.824C41.392 79.536 44.512 79.584 46.24 79.968C47.968 80.352 48.928 80.448 49.12 80.256C49.888 79.776 50.992 80.64 52.432 82.848C53.296 84.288 53.776 85.344 53.872 86.016C53.968 86.592 53.68 87.12 53.008 87.6C52.336 87.984 51.472 88.704 50.416 89.76C49.744 90.432 49.216 90.816 48.832 90.912C48.544 91.008 47.776 91.008 46.528 90.912C44.992 90.72 43.84 90.768 43.072 91.056C42.4 91.344 39.616 91.488 34.72 91.488C29.824 91.488 27.184 91.344 26.8 91.056C26.416 90.768 25.12 90.672 22.912 90.768C20.608 90.768 19.024 90.528 18.16 90.048C17.296 89.472 16.144 89.184 14.704 89.184C12.208 89.184 10.624 88.464 9.952 87.024C9.664 86.448 8.896 85.68 7.648 84.72C6.4 83.76 5.536 82.704 5.056 81.552C4.288 79.632 3.568 77.904 2.896 76.368C1.36 72.624 1.312 69.408 2.752 66.72C3.424 65.28 4 63.504 4.48 61.392C4.96 59.28 5.296 57.984 5.488 57.504C5.776 57.024 6.592 56.208 7.936 55.056C10.144 53.04 12.016 51.888 13.552 51.6C14.8 51.408 16.048 51.072 17.296 50.592C18.64 50.112 19.984 49.872 21.328 49.872C22.576 49.872 23.728 49.68 24.784 49.296C25.84 48.912 28.624 48.72 33.136 48.72C37.552 48.72 40.24 48.48 41.2 48C42.16 47.424 42.64 45.84 42.64 43.248C42.736 42.192 42.928 41.376 43.216 40.8C43.792 39.84 43.936 38.64 43.648 37.2C43.456 35.76 42.976 34.704 42.208 34.032C41.44 33.456 39.616 33.072 36.736 32.88C33.952 32.592 31.696 32.64 29.968 33.024C28.816 33.312 27.424 33.6 25.792 33.888C24.448 33.984 23.296 34.176 22.336 34.464C21.088 34.752 19.84 34.752 18.592 34.464C17.152 34.08 15.856 34.08 14.704 34.464C10.576 35.616 7.936 34.8 6.784 32.016C5.44 28.944 5.968 26.736 8.368 25.392C8.464 25.296 8.8 25.104 9.376 24.816C9.952 24.528 10.384 24.288 10.672 24.096C11.92 23.424 15.376 22.944 21.04 22.656C22.864 22.56 24.208 22.368 25.072 22.08ZM76.192 24.24C77.248 23.28 78.688 23.28 80.512 24.24C81.568 24.816 82.336 25.104 82.816 25.104C83.584 25.104 84.16 25.776 84.544 27.12C84.928 28.368 85.312 30.816 85.696 34.464C85.792 35.712 85.696 38.592 85.408 43.104C85.216 47.616 85.12 50.16 85.12 50.736C85.12 51.504 85.12 52.608 85.12 54.048C85.024 55.776 84.976 57.696 84.976 59.808C84.976 61.92 84.784 63.552 84.4 64.704C84.016 65.76 83.968 67.248 84.256 69.168C84.544 70.992 84.64 72.624 84.544 74.064C84.352 75.408 84.4 76.464 84.688 77.232C84.976 78.096 84.976 80.352 84.688 84C84.496 87.648 84.208 89.808 83.824 90.48C82.384 92.496 81.088 93.792 79.936 94.368C78.784 94.848 77.488 94.752 76.048 94.08C75.184 93.6 74.56 93.12 74.176 92.64C73.888 92.064 73.744 91.248 73.744 90.192C73.744 88.944 73.504 87.744 73.024 86.592C72.544 85.152 72.4 83.952 72.592 82.992C72.688 82.032 72.544 80.016 72.16 76.944C71.68 73.872 71.632 71.952 72.016 71.184C72.688 69.936 72.784 68.208 72.304 66C72.016 64.944 72.112 63.888 72.592 62.832C73.072 61.68 73.216 60.144 73.024 58.224C72.64 55.344 72.64 52.032 73.024 48.288C73.888 40.896 74.176 35.424 73.888 31.872C73.792 30.432 73.936 28.944 74.32 27.408C74.8 25.872 75.424 24.816 76.192 24.24ZM117.91 1.19999C119.638 0.911997 121.75 0.815998 124.246 0.911997C127.702 1.008 131.494 1.10399 135.622 1.19999C140.998 1.29599 144.166 1.43999 145.126 1.632C146.278 1.82399 147.622 1.67999 149.158 1.19999C150.598 0.815992 151.894 0.719994 153.046 0.911997C154.102 1.10399 155.35 1.19999 156.79 1.19999C157.942 1.19999 158.758 1.39199 159.238 1.77599C159.718 2.064 160.39 2.832 161.254 4.08C162.022 5.136 162.454 6.288 162.55 7.536C162.646 8.784 162.358 9.744 161.686 10.416C159.67 12.432 152.998 12.816 141.67 11.568C135.814 10.992 131.302 10.992 128.134 11.568C126.694 11.856 124.918 11.904 122.806 11.712C120.694 11.52 119.446 11.568 119.062 11.856C118.678 12.24 116.47 12.192 112.438 11.712C111.19 11.52 110.182 11.568 109.414 11.856C108.166 12.432 107.206 12.336 106.534 11.568C105.862 10.8 105.382 9.31199 105.094 7.10399C104.902 5.664 105.814 4.272 107.83 2.928C109.942 1.488 111.862 0.959996 113.59 1.34399C114.646 1.63199 116.086 1.58399 117.91 1.19999ZM131.014 17.904C131.494 17.616 134.374 17.568 139.654 17.76C144.934 17.856 148.438 18.096 150.166 18.48C152.086 18.864 153.814 19.44 155.35 20.208C156.982 20.976 157.894 21.648 158.086 22.224C158.374 23.664 157.558 25.104 155.638 26.544C153.718 27.888 151.51 28.8 149.014 29.28C146.518 29.76 144.118 29.712 141.814 29.136C139.51 28.464 134.134 28.368 125.686 28.848C125.11 28.848 124.198 28.752 122.95 28.56C121.03 28.08 119.446 28.368 118.198 29.424C117.046 30.48 116.518 32.016 116.614 34.032C116.71 35.376 117.67 36.48 119.494 37.344C121.414 38.208 123.334 38.4 125.254 37.92C126.31 37.632 127.846 37.68 129.862 38.064C131.782 38.352 134.326 38.448 137.494 38.352C140.854 38.16 145.318 37.632 150.886 36.768C151.75 36.672 152.71 36.816 153.766 37.2C154.822 37.584 155.782 37.68 156.646 37.488C157.126 37.392 157.462 37.44 157.654 37.632C157.846 37.728 158.086 38.064 158.374 38.64C159.334 40.848 159.142 42.912 157.798 44.832C156.55 46.752 154.774 47.664 152.47 47.568C150.934 47.568 149.062 47.808 146.854 48.288C144.55 48.672 141.91 48.768 138.934 48.576C135.958 48.384 133.798 48.432 132.454 48.72C130.822 49.104 128.518 48.96 125.542 48.288C124.486 48.096 123.19 48.096 121.654 48.288C120.214 48.48 118.726 48.288 117.19 47.712C115.75 47.136 114.55 46.896 113.59 46.992C111.766 47.28 109.654 46.368 107.254 44.256C104.95 42.144 103.798 40.176 103.798 38.352C103.798 37.296 103.606 36.24 103.222 35.184C102.646 33.744 102.502 31.488 102.79 28.416C103.174 25.248 103.75 23.184 104.518 22.224C105.862 20.496 107.59 19.632 109.702 19.632C110.95 19.728 112.15 19.584 113.302 19.2C115.222 18.432 119.782 18.144 126.982 18.336C129.286 18.336 130.63 18.192 131.014 17.904ZM138.214 55.92C139.654 56.016 140.902 55.92 141.958 55.632C143.11 55.344 144.31 55.248 145.558 55.344C147.958 55.632 152.998 55.584 160.678 55.2C162.694 55.104 163.942 55.104 164.422 55.2C164.902 55.2 165.43 55.44 166.006 55.92C166.774 56.688 167.59 56.976 168.454 56.784C169.894 56.496 170.998 57.552 171.766 59.952C172.534 62.256 172.294 63.84 171.046 64.704C167.206 67.2 163.846 68.064 160.966 67.296C159.718 67.008 157.558 66.864 154.486 66.864C151.414 66.864 149.206 67.008 147.862 67.296C146.806 67.584 145.702 67.536 144.55 67.152C143.494 66.768 140.47 66.768 135.478 67.152C130.486 67.44 126.406 67.536 123.238 67.44C120.262 67.44 118.15 67.536 116.902 67.728C115.654 68.112 114.214 68.064 112.582 67.584C111.046 67.008 108.982 66.72 106.39 66.72C104.182 66.72 102.694 66.576 101.926 66.288C101.254 66 100.63 65.232 100.054 63.984C98.9984 61.872 99.0944 60.144 100.342 58.8C101.686 57.36 103.99 56.544 107.254 56.352C110.23 56.16 111.814 56.16 112.006 56.352C112.198 56.448 113.158 56.304 114.886 55.92C117.862 55.344 121.942 55.536 127.126 56.496C130.198 57.168 132.694 57.12 134.614 56.352C135.574 55.872 136.774 55.728 138.214 55.92ZM131.446 71.472C131.638 71.184 134.086 71.136 138.79 71.328C143.59 71.52 146.23 71.712 146.71 71.904C147.478 72.192 148.87 72.432 150.886 72.624C156.454 73.2 159.958 74.928 161.398 77.808C162.166 79.248 162.55 80.448 162.55 81.408C162.646 82.272 162.454 83.712 161.974 85.728C161.494 87.648 161.014 88.944 160.534 89.616C160.054 90.288 159.142 90.912 157.798 91.488C156.742 91.872 155.638 92.304 154.486 92.784C151.606 94.032 147.91 94.848 143.398 95.232C139.174 95.424 135.478 96.096 132.31 97.248C130.486 97.824 127.942 97.968 124.678 97.68C123.334 97.488 122.47 97.44 122.086 97.536C121.798 97.536 121.414 97.776 120.934 98.256C120.262 98.928 119.83 99.744 119.638 100.704C119.542 101.568 119.734 102.24 120.214 102.72C121.27 103.68 124.294 104.4 129.286 104.88C134.278 105.36 138.166 105.312 140.95 104.736C142.966 104.256 145.414 104.016 148.294 104.016C151.174 103.824 153.142 103.632 154.198 103.44C155.158 103.152 156.214 103.2 157.366 103.584C158.422 103.968 159.43 104.112 160.39 104.016C161.254 103.824 161.83 103.92 162.118 104.304C162.502 104.688 162.934 105.792 163.414 107.616C163.894 109.44 163.99 110.688 163.702 111.36C163.414 112.128 162.406 112.992 160.678 113.952C159.43 114.72 158.518 115.152 157.942 115.248C157.366 115.44 156.022 115.584 153.91 115.68C144.406 115.872 139.51 116.064 139.222 116.256C138.646 116.64 137.494 116.88 135.766 116.976C134.038 117.072 132.79 117.024 132.022 116.832C130.774 116.448 129.142 116.256 127.126 116.256C125.206 116.256 123.67 115.968 122.518 115.392C121.366 114.912 120.31 114.672 119.35 114.672C117.238 114.672 115.606 114.048 114.454 112.8C113.974 112.224 113.158 111.648 112.006 111.072C110.374 110.208 109.27 108.816 108.694 106.896C108.406 105.936 107.926 104.976 107.254 104.016C106.486 102.864 106.102 101.136 106.102 98.832C106.102 96.432 106.486 94.608 107.254 93.36C108.502 91.248 110.038 90 111.862 89.616C113.014 89.328 113.782 89.088 114.166 88.896C115.798 87.552 118.15 86.832 121.222 86.736C127.654 86.544 132.022 86.112 134.326 85.44C135.478 85.056 136.726 85.056 138.07 85.44C139.414 85.728 140.278 85.776 140.662 85.584C140.662 85.584 140.854 85.488 141.238 85.296C141.622 85.104 141.91 84.96 142.102 84.864C142.774 84.48 143.542 84.288 144.406 84.288C145.27 84.288 146.038 84.048 146.71 83.568C147.382 83.088 147.718 82.608 147.718 82.128C147.718 81.744 146.902 81.648 145.27 81.84C143.542 81.936 142.15 81.792 141.094 81.408C139.942 81.024 138.118 81.072 135.622 81.552C133.702 81.84 129.382 81.984 122.662 81.984C115.942 81.984 112.294 81.84 111.718 81.552C110.854 80.976 110.518 79.68 110.71 77.664C110.902 75.552 111.526 74.016 112.582 73.056C113.158 72.48 113.926 72.144 114.886 72.048C115.846 71.952 118.87 71.856 123.958 71.76C128.854 71.568 131.35 71.472 131.446 71.472Z" fill="#6EA8FE"/>
<path d="M224.71 13.296C224.998 12.912 227.782 13.056 233.062 13.728C236.134 14.208 238.054 15.408 238.822 17.328C239.686 19.152 239.11 20.88 237.094 22.512C236.326 23.088 235.654 23.472 235.078 23.664C234.502 23.76 233.014 23.856 230.614 23.952C224.182 24.336 220.918 25.2 220.822 26.544C220.822 27.12 221.158 27.888 221.83 28.848C222.886 30.192 223.606 31.968 223.99 34.176C224.374 36.384 224.326 38.208 223.846 39.648C223.462 40.8 223.27 42.768 223.27 45.552C223.27 48.336 223.462 49.872 223.846 50.16C224.326 50.544 225.67 50.784 227.878 50.88C231.142 51.072 233.254 51.84 234.214 53.184C235.27 54.528 235.03 56.256 233.494 58.368C232.63 59.52 231.766 60.288 230.902 60.672C230.038 60.96 228.79 61.008 227.158 60.816C223.318 60.432 219.574 60.72 215.926 61.68C213.718 62.256 212.23 62.592 211.462 62.688C210.79 62.784 209.734 62.736 208.294 62.544C205.126 62.16 203.11 61.968 202.246 61.968C201.382 61.872 200.422 62.016 199.366 62.4C198.022 62.784 196.39 62.928 194.47 62.832C189.574 62.352 186.694 61.968 185.83 61.68C185.062 61.392 184.342 60.432 183.67 58.8C183.094 57.072 183.094 55.584 183.67 54.336C184.246 52.992 185.254 52.176 186.694 51.888C188.23 51.6 189.382 50.736 190.15 49.296C191.014 47.856 191.398 46.032 191.302 43.824C191.302 39.6 191.638 35.328 192.31 31.008C192.694 28.992 192.406 27.648 191.446 26.976C190.582 26.208 188.71 25.824 185.83 25.824C183.91 25.824 182.662 25.68 182.086 25.392C181.606 25.104 181.03 24.288 180.358 22.944C179.014 20.16 179.062 18.144 180.502 16.896C182.038 15.552 185.158 14.832 189.862 14.736C194.086 14.64 196.87 14.4 198.214 14.016C201.094 13.248 203.158 13.248 204.406 14.016C204.982 14.4 205.942 14.448 207.286 14.16C208.534 13.872 211.702 13.68 216.79 13.584C221.782 13.584 224.422 13.488 224.71 13.296ZM212.326 24.816C212.134 24.624 211.558 24.48 210.598 24.384C209.734 24.192 209.158 24.24 208.87 24.528C208.774 24.624 208.006 24.768 206.566 24.96C204.646 25.248 203.398 26.352 202.822 28.272C202.342 30.096 202.102 34.416 202.102 41.232C202.102 46.608 202.39 49.824 202.966 50.88C203.638 51.936 205.27 52.08 207.862 51.312C210.166 50.544 211.51 49.728 211.894 48.864C212.278 47.904 212.518 45.072 212.614 40.368C212.71 35.088 212.758 32.352 212.758 32.16C212.854 31.776 212.902 30.864 212.902 29.424V26.544C212.902 25.872 212.71 25.296 212.326 24.816ZM263.734 19.344C264.406 18.768 265.03 18.432 265.606 18.336C266.278 18.24 267.334 18.432 268.774 18.912C270.118 19.296 271.03 19.824 271.51 20.496C271.99 21.168 272.518 22.704 273.094 25.104C273.766 28.08 274.006 33.984 273.814 42.816C273.622 51.552 273.142 56.784 272.374 58.512C271.894 59.472 270.79 60.144 269.062 60.528C267.43 60.816 265.99 60.672 264.742 60.096C263.59 59.52 262.534 57.888 261.574 55.2C260.71 52.416 260.47 50.064 260.854 48.144C261.142 46.416 261.334 42.816 261.43 37.344C261.622 31.872 261.574 28.032 261.286 25.824C260.998 23.616 261.814 21.456 263.734 19.344ZM248.182 20.496C251.734 19.632 254.518 20.688 256.534 23.664C258.55 26.64 259.126 30.48 258.262 35.184C257.302 39.696 256.918 43.728 257.11 47.28C257.398 51.408 256.966 54.624 255.814 56.928C254.758 59.136 253.126 60.24 250.918 60.24C250.342 60.24 249.718 59.952 249.046 59.376C248.374 58.8 248.038 58.272 248.038 57.792C248.038 57.312 247.75 56.64 247.174 55.776C246.694 55.008 246.55 53.664 246.742 51.744C246.934 48.672 246.598 46.704 245.734 45.84C244.87 44.88 242.95 44.4 239.974 44.4C237.766 44.4 236.182 44.208 235.222 43.824C234.262 43.44 233.542 42.672 233.062 41.52C232.294 40.08 232.054 38.976 232.342 38.208C232.726 37.344 233.734 36.528 235.366 35.76C236.518 35.184 237.526 34.608 238.39 34.032C239.254 33.552 240.262 33.168 241.414 32.88C243.43 32.4 244.726 31.632 245.302 30.576C245.974 29.52 246.214 27.744 246.022 25.248C245.83 23.616 245.878 22.464 246.166 21.792C246.55 21.12 247.222 20.688 248.182 20.496ZM229.75 70.752C230.998 70.176 231.91 69.984 232.486 70.176C233.158 70.368 233.782 70.944 234.358 71.904C234.742 72.672 235.27 73.152 235.942 73.344C237.478 73.92 237.91 75.6 237.238 78.384C236.95 79.824 236.902 80.88 237.094 81.552C237.286 82.128 237.91 82.752 238.966 83.424C239.926 84.096 240.694 84.624 241.27 85.008C242.134 85.68 243.862 86.64 246.454 87.888C250.102 89.52 252.694 90.72 254.23 91.488C256.726 92.736 258.214 93.36 258.694 93.36C260.134 93.36 261.19 94.512 261.862 96.816C262.63 99.024 262.534 100.656 261.574 101.712C259.174 104.304 256.342 104.88 253.078 103.44C251.926 102.96 251.014 102.72 250.342 102.72C249.67 102.72 248.518 102.288 246.886 101.424C245.254 100.56 243.862 99.696 242.71 98.832C241.558 97.968 240.454 97.296 239.398 96.816C238.534 96.432 237.478 95.568 236.23 94.224C234.982 92.88 233.206 91.824 230.902 91.056C228.502 90.288 226.918 89.952 226.15 90.048C225.382 90.144 224.23 90.816 222.694 92.064C221.542 92.928 220.294 93.744 218.95 94.512C217.414 95.472 215.878 96.576 214.342 97.824C212.902 98.976 211.654 99.648 210.598 99.84C209.542 100.032 208.534 100.416 207.574 100.992C206.134 102.048 204.358 102.144 202.246 101.28C200.23 100.32 199.222 99.024 199.222 97.392C199.222 96.336 199.798 94.992 200.95 93.36C202.198 91.632 203.446 90.48 204.694 89.904C205.654 89.328 206.614 88.656 207.574 87.888C208.63 86.928 210.358 85.968 212.758 85.008C213.622 84.72 214.87 83.76 216.502 82.128C218.134 80.592 219.478 79.632 220.534 79.248C221.206 78.96 222.358 78.048 223.99 76.512C225.718 74.88 226.87 73.584 227.446 72.624C227.926 71.856 228.694 71.232 229.75 70.752Z" fill="#AFA897"/>
</svg>
